<?xml version="1.0" standalone="no"?>
<!DOCTYPE svg PUBLIC "-//W3C//DTD SVG 20010904//EN"
 "http://www.w3.org/TR/2001/REC-SVG-20010904/DTD/svg10.dtd">
<svg version="1.0" xmlns="http://www.w3.org/2000/svg"
 width="1378.000000pt" height="1378.000000pt" viewBox="0 0 1378.000000 1378.000000"
 preserveAspectRatio="xMidYMid meet">
<metadata>
Created by potrace 1.11, written by Peter Selinger 2001-2013
</metadata>
<g transform="translate(0.000000,1378.000000) scale(0.100000,-0.100000)"
fill="#000000" stroke="none">
<path d="M6668 13359 c-6 -4 -20 -6 -31 -3 -11 2 -35 -3 -53 -11 -19 -8 -36
-14 -39 -15 -15 -2 -42 -16 -52 -26 -10 -10 -78 -13 -78 -4 0 1 -36 4 -80 6
-301 15 -671 18 -930 9 -305 -11 -350 -13 -350 -15 0 -2 -34 -4 -75 -5 -41 -2
-75 -4 -75 -5 0 -1 -34 -4 -75 -6 -136 -8 -185 -12 -190 -14 -3 -1 -27 -4 -55
-5 -27 -1 -52 -3 -55 -5 -3 -1 -25 -4 -50 -6 -25 -1 -70 -5 -100 -9 -127 -13
-157 -16 -195 -19 -22 -2 -41 -4 -42 -6 -2 -1 -16 -4 -33 -5 -16 -1 -31 -4
-32 -5 -3 -2 -39 -7 -108 -14 -19 -2 -35 -5 -35 -6 0 -2 -13 -4 -30 -6 -28 -2
-58 -7 -125 -20 -14 -2 -38 -7 -55 -10 -57 -10 -70 -12 -70 -14 0 -3 -31 -9
-65 -13 -14 -1 -31 -6 -37 -10 -7 -5 -17 -6 -22 -2 -5 3 -12 1 -16 -5 -4 -6
-11 -8 -16 -5 -5 4 -15 3 -21 -2 -13 -8 -28 -12 -64 -18 -12 -1 -31 -8 -43
-14 -11 -7 -21 -9 -21 -5 0 3 -7 1 -15 -6 -8 -7 -15 -9 -15 -5 0 4 -7 2 -15
-5 -8 -7 -15 -10 -15 -6 0 4 -13 0 -30 -9 -17 -9 -30 -13 -30 -9 0 4 -7 1 -15
-6 -8 -6 -19 -9 -25 -5 -5 3 -10 2 -10 -3 0 -8 -16 -16 -55 -27 -5 -1 -26 -12
-45 -23 -19 -12 -49 -28 -66 -37 -101 -52 -225 -191 -284 -320 -12 -27 -26
-52 -31 -55 -5 -3 -10 -15 -12 -25 -1 -11 -5 -24 -8 -30 -4 -5 -9 -22 -13 -37
-3 -16 -11 -28 -17 -28 -6 0 -7 -5 -4 -10 4 -6 1 -17 -5 -25 -7 -8 -9 -15 -5
-15 4 0 3 -6 -3 -12 -6 -7 -11 -17 -12 -23 -3 -14 -5 -20 -30 -98 -12 -37 -23
-75 -25 -85 -2 -9 -4 -17 -5 -17 -2 0 -2 -3 -15 -60 -8 -39 -13 -59 -16 -65
-1 -3 -3 -9 -4 -15 -2 -5 -4 -12 -5 -15 -3 -9 -10 -44 -15 -73 -2 -15 -7 -32
-11 -38 -4 -6 -8 -23 -10 -38 -2 -14 -6 -39 -9 -56 -3 -16 -7 -41 -9 -55 -2
-14 -4 -25 -5 -25 -4 0 -12 -39 -15 -70 -2 -16 -4 -31 -6 -32 -1 -2 -3 -11 -4
-20 -1 -10 -4 -22 -7 -28 -4 -5 -5 -19 -3 -29 1 -11 0 -25 -4 -30 -4 -6 -8
-22 -8 -36 -1 -14 -3 -25 -4 -25 -1 0 -5 -33 -14 -125 -2 -19 -5 -35 -6 -35
-1 0 -4 -20 -6 -45 -2 -25 -6 -74 -9 -110 -3 -36 -7 -94 -9 -130 -2 -36 -5
-65 -6 -65 -7 0 -17 -625 -10 -630 6 -4 2 -1373 -5 -1760 -13 -685 -5 -1400
20 -1895 3 -58 7 -134 8 -170 1 -36 5 -69 8 -75 3 -5 5 -36 4 -68 -1 -32 1
-60 5 -62 3 -2 6 -30 5 -62 -1 -32 1 -62 4 -68 3 -5 7 -35 8 -65 2 -58 10
-159 18 -250 12 -130 15 -158 20 -215 3 -33 7 -89 10 -125 3 -36 7 -85 10
-110 6 -58 14 -141 20 -205 2 -27 7 -72 10 -100 3 -27 8 -75 10 -105 8 -91 13
-135 15 -135 1 0 4 -16 6 -35 2 -19 6 -57 9 -85 3 -27 7 -66 9 -85 2 -19 5
-36 6 -37 1 -2 4 -16 5 -33 1 -16 3 -31 5 -32 1 -2 4 -18 6 -35 2 -18 6 -48 8
-65 2 -18 5 -33 6 -33 1 0 3 -13 6 -30 4 -34 12 -70 14 -70 1 0 4 -11 5 -25 6
-41 14 -85 15 -85 1 0 4 -12 14 -60 1 -5 5 -16 9 -22 5 -7 6 -13 3 -13 -2 0 0
-15 5 -32 6 -18 12 -44 15 -58 2 -14 7 -32 11 -40 3 -8 8 -24 10 -35 2 -11 6
-27 10 -35 3 -8 7 -18 8 -22 2 -5 4 -10 5 -13 1 -3 4 -9 5 -15 1 -5 3 -11 5
-12 1 -2 3 -10 5 -18 2 -8 10 -31 19 -51 8 -20 12 -39 9 -43 -4 -3 -1 -6 5 -6
7 0 12 -5 12 -11 0 -5 10 -31 21 -57 12 -26 21 -49 20 -51 -2 -2 1 -7 6 -10 4
-3 21 -31 36 -61 75 -146 195 -306 322 -428 38 -37 89 -86 114 -110 24 -23 45
-42 47 -42 4 0 44 -31 140 -108 12 -9 28 -21 37 -27 8 -5 36 -25 61 -42 26
-18 50 -33 55 -33 4 0 16 -8 27 -18 21 -20 22 -21 194 -109 98 -50 223 -106
240 -108 3 0 15 -6 28 -13 12 -7 22 -10 22 -6 0 3 7 1 15 -6 8 -7 15 -9 15 -5
0 4 7 2 15 -5 8 -7 15 -9 15 -5 0 4 6 2 13 -4 8 -6 22 -12 33 -14 10 -2 27 -7
36 -11 9 -4 22 -9 30 -10 7 -2 20 -5 28 -8 17 -7 131 -41 143 -44 4 -1 8 -2
10 -4 1 -1 11 -3 22 -5 11 -2 45 -11 75 -20 30 -9 63 -18 73 -21 36 -9 58 -14
75 -18 9 -2 29 -9 43 -14 15 -6 29 -8 32 -5 3 3 12 1 19 -3 7 -5 18 -9 23 -10
16 -3 58 -12 85 -19 14 -3 32 -8 40 -10 8 -2 15 -4 15 -6 0 -1 9 -3 20 -5 26
-4 60 -12 60 -14 0 -1 11 -3 25 -5 32 -6 65 -13 65 -15 0 -2 36 -11 60 -14 11
-2 31 -6 45 -10 14 -3 36 -8 50 -10 14 -3 25 -5 25 -6 0 -1 7 -3 15 -5 51 -11
78 -16 105 -21 39 -6 70 -12 70 -14 0 -2 33 -9 65 -15 14 -2 25 -4 25 -5 0 -1
11 -4 25 -5 29 -4 65 -13 65 -15 0 -1 11 -3 25 -5 14 -2 39 -7 55 -10 17 -4
37 -8 45 -10 8 -2 16 -4 18 -5 1 -2 11 -4 22 -5 11 -1 21 -4 23 -5 1 -1 11 -4
22 -5 11 -2 34 -6 50 -10 17 -3 41 -8 55 -10 14 -2 27 -4 30 -5 3 -1 10 -3 15
-5 6 -1 12 -3 15 -4 3 -1 17 -4 33 -7 15 -2 39 -6 55 -8 15 -3 27 -5 27 -6 0
-2 38 -10 70 -14 17 -3 30 -5 30 -6 0 -1 11 -3 25 -5 14 -2 36 -6 50 -9 14 -4
42 -9 63 -12 50 -8 72 -12 72 -14 0 -1 14 -4 30 -6 40 -4 80 -12 80 -14 0 -1
14 -4 30 -6 52 -6 80 -11 80 -14 0 -1 11 -4 25 -5 14 -2 43 -6 65 -9 44 -7 96
-15 135 -21 14 -1 25 -4 25 -5 0 -3 40 -11 70 -13 17 -1 35 -5 41 -9 6 -4 23
-5 37 -3 14 3 28 1 32 -4 3 -6 15 -8 27 -6 11 3 26 1 32 -3 6 -4 22 -8 36 -9
58 -5 105 -11 105 -13 0 -1 18 -4 40 -6 22 -2 58 -6 80 -9 97 -13 123 -16 165
-19 25 -2 45 -5 45 -6 0 -3 69 -8 170 -14 39 -2 70 -5 70 -6 0 -5 471 -6 480
-1 6 3 35 7 65 8 30 1 73 5 95 8 22 3 52 7 67 8 15 1 30 5 33 9 4 3 18 4 32 2
14 -3 31 0 39 7 8 6 20 9 28 6 8 -3 17 -3 20 1 4 3 14 7 24 8 20 3 56 12 60
14 1 2 10 3 20 4 9 1 23 5 30 10 7 4 16 5 19 2 3 -3 12 -1 20 5 7 6 13 8 13 4
0 -4 7 -2 15 5 8 7 15 9 15 5 0 -4 7 -2 15 5 8 7 15 10 15 6 0 -3 30 6 68 20
37 14 74 27 83 29 9 2 25 8 35 14 11 6 48 24 84 41 36 16 74 36 85 42 11 7 45
28 75 47 30 19 74 50 98 68 23 19 42 33 42 30 0 -8 109 91 188 171 85 87 183
209 223 278 12 21 33 57 46 79 29 50 95 188 108 225 1 3 8 19 15 35 7 17 14
33 15 38 2 4 4 9 5 12 1 3 4 10 5 15 1 6 4 12 5 15 1 3 4 10 5 15 1 6 4 12 5
15 1 3 4 10 5 15 1 6 4 12 5 15 1 3 4 10 5 15 1 6 4 12 5 15 1 3 4 10 5 15 1
6 4 12 5 15 1 3 4 10 5 15 1 6 4 12 5 15 1 3 4 10 5 15 1 6 4 12 5 15 1 3 4
10 5 15 1 6 4 13 5 18 1 4 2 11 1 15 -1 4 3 16 8 26 6 10 13 31 16 47 10 47
10 48 18 62 5 6 5 12 1 12 -3 0 -1 7 6 15 6 8 9 19 6 24 -4 5 -1 13 5 16 5 4
8 13 5 21 -3 7 -1 16 5 20 6 3 8 12 5 19 -2 7 -2 16 2 20 4 4 8 15 8 26 1 10
3 21 4 24 1 3 4 10 5 15 1 6 3 11 5 13 1 1 4 12 6 25 2 12 6 32 8 45 2 12 5
22 6 22 1 0 4 14 6 30 11 62 12 70 14 70 3 0 11 40 15 70 2 17 4 30 5 30 3 0
10 50 10 72 0 13 4 23 8 23 4 0 8 10 9 23 0 12 3 36 7 52 3 17 8 41 11 55 3
14 8 39 11 55 4 17 7 39 8 50 1 11 4 25 7 30 4 6 5 19 3 29 -1 11 0 25 4 30 3
6 7 20 9 31 1 11 5 38 8 60 4 22 8 54 10 70 2 17 6 46 10 65 3 19 8 51 11 70
2 19 6 46 9 60 6 36 16 118 20 165 1 22 4 40 5 40 1 0 4 25 6 55 6 81 11 135
14 135 1 0 3 29 5 65 1 36 4 65 5 65 1 0 4 23 6 50 2 28 6 77 9 110 2 33 7 89
10 125 2 36 7 94 10 130 3 36 7 101 9 145 2 44 5 80 6 80 1 0 4 34 6 75 2 41
6 109 9 150 3 41 7 111 9 155 2 44 5 81 6 83 1 1 4 34 5 72 1 39 4 71 5 73 1
1 4 45 6 97 7 159 11 235 14 235 1 0 3 29 4 65 1 36 4 70 7 75 3 6 5 38 4 73
-1 35 1 65 5 67 3 2 5 37 4 77 -1 40 1 78 5 83 3 6 7 35 8 65 1 30 4 84 7 120
3 36 7 88 9 115 1 28 5 55 8 60 3 6 5 33 4 60 -1 28 0 54 3 60 3 5 7 30 9 55
9 124 11 145 13 148 1 1 3 14 4 30 1 15 4 32 7 37 3 6 5 28 4 50 -2 22 1 45 5
50 4 6 6 26 5 45 -1 19 0 40 4 45 3 6 6 24 7 40 1 17 2 32 4 35 1 3 4 23 5 45
2 22 6 63 9 90 4 28 8 66 11 85 2 19 7 55 10 80 4 25 8 61 10 80 1 19 4 35 5
35 2 0 9 52 14 115 2 25 5 47 6 50 1 3 3 16 5 30 1 14 3 28 5 33 1 4 4 21 5
37 1 17 4 31 5 33 1 1 3 20 5 42 1 22 4 42 5 45 1 3 3 19 5 35 1 17 3 33 5 38
1 4 4 21 5 37 1 17 4 31 5 33 1 1 4 18 5 37 2 19 6 55 9 80 4 25 8 61 10 80 2
19 5 35 6 35 1 0 3 18 6 40 6 57 12 100 14 100 1 0 3 18 5 40 9 104 22 220 25
220 1 0 4 23 6 50 2 28 6 70 9 95 3 25 7 63 9 85 2 22 5 40 6 40 1 0 4 23 5
50 2 28 7 79 10 115 3 36 7 83 8 105 1 22 5 45 8 50 3 6 5 37 4 70 -1 33 1 65
4 70 11 20 22 732 12 750 -3 6 -7 39 -8 75 -2 72 -9 144 -19 205 -3 22 -7 51
-9 65 -2 14 -4 26 -5 28 -1 1 -3 10 -4 20 -1 9 -4 22 -7 27 -4 6 -5 19 -3 29
1 11 0 25 -4 30 -7 11 -11 29 -16 56 -1 9 -5 21 -10 28 -4 6 -5 12 -1 12 3 0
-1 14 -10 30 -9 17 -13 30 -9 30 4 0 1 7 -6 15 -7 8 -9 15 -5 15 4 0 2 7 -5
15 -7 8 -10 15 -6 15 4 0 -3 18 -14 40 -11 22 -19 40 -16 40 3 0 -82 171 -130
260 -25 47 -159 194 -234 257 -136 115 -309 222 -455 283 -11 5 -41 18 -67 29
-27 11 -48 17 -48 14 0 -3 -7 0 -15 7 -8 7 -15 10 -15 6 0 -4 -13 0 -30 9 -16
9 -30 13 -30 9 0 -4 -7 -1 -15 6 -8 7 -15 9 -15 5 0 -4 -7 -2 -15 5 -8 7 -15
9 -15 5 0 -4 -6 -3 -13 3 -7 6 -25 12 -39 14 -15 2 -30 7 -34 11 -4 4 -17 7
-29 7 -12 0 -25 3 -29 7 -7 7 -31 14 -56 15 -8 0 -21 5 -27 11 -7 5 -13 7 -13
4 0 -3 -15 0 -34 8 -18 8 -36 11 -39 8 -4 -3 -13 -1 -20 5 -8 7 -17 9 -20 5
-4 -3 -13 0 -22 7 -8 7 -21 10 -30 7 -8 -4 -17 -2 -20 4 -4 5 -11 7 -16 4 -5
-4 -15 -3 -21 2 -14 8 -30 12 -68 18 -14 1 -26 4 -27 5 -2 1 -12 4 -23 5 -11
1 -22 4 -25 5 -7 3 -82 20 -120 26 -5 1 -12 3 -15 4 -13 5 -48 11 -80 14 -19
2 -37 5 -40 6 -3 2 -9 4 -15 5 -5 2 -12 4 -15 5 -3 1 -18 3 -35 5 -16 2 -46 7
-65 10 -19 3 -48 8 -65 10 -47 6 -98 14 -125 21 -14 3 -36 7 -50 9 -59 8 -127
17 -155 20 -16 1 -30 4 -30 5 0 1 -18 3 -40 5 -22 1 -40 3 -40 5 0 1 -18 4
-40 6 -22 2 -56 6 -75 9 -19 3 -55 7 -80 9 -25 2 -45 4 -45 6 0 1 -22 3 -50 5
-27 2 -68 7 -90 10 -22 4 -65 8 -95 9 -30 2 -55 4 -55 6 0 1 -22 4 -50 6 -61
5 -150 12 -230 19 -33 3 -89 7 -125 10 -36 2 -99 7 -140 10 -41 3 -100 7 -130
9 -30 2 -55 5 -55 6 0 1 -40 4 -90 5 -49 2 -128 7 -175 10 -135 10 -220 11
-232 4z"/>
</g>
</svg>
